<svg id="visual" viewBox="0 0 900 600" width="900" height="600" xmlns="http://www.w3.org/2000/svg" xmlns:xlink="http://www.w3.org/1999/xlink" version="1.1"><rect x="0" y="0" width="900" height="600" fill="#3a63e3"></rect><path d="M0 372L50 353.7C100 335.3 200 298.7 300 296.2C400 293.7 500 325.3 600 346.5C700 367.7 800 378.3 850 383.7L900 389L900 601L850 601C800 601 700 601 600 601C500 601 400 601 300 601C200 601 100 601 50 601L0 601Z" fill="#294bae"></path><path d="M0 340L50 339.2C100 338.3 200 336.7 300 351.7C400 366.7 500 398.3 600 410.5C700 422.7 800 415.3 850 411.7L900 408L900 601L850 601C800 601 700 601 600 601C500 601 400 601 300 601C200 601 100 601 50 601L0 601Z" fill="#183896"></path><path d="M0 416L50 413.3C100 410.7 200 405.3 300 405.7C400 406 500 412 600 424.2C700 436.3 800 454.7 850 463.8L900 473L900 601L850 601C800 601 700 601 600 601C500 601 400 601 300 601C200 601 100 601 50 601L0 601Z" fill="#00257f"></path><path d="M0 450L50 453.7C100 457.3 200 464.7 300 474C400 483.3 500 494.7 600 497.7C700 500.7 800 495.3 850 492.7L900 490L900 601L850 601C800 601 700 601 600 601C500 601 400 601 300 601C200 601 100 601 50 601L0 601Z" fill="#001266"></path><path d="M0 515L50 521.7C100 528.3 200 541.7 300 542C400 542.3 500 529.7 600 528.5C700 527.3 800 537.7 850 542.8L900 548L900 601L850 601C800 601 700 601 600 601C500 601 400 601 300 601C200 601 100 601 50 601L0 601Z" fill="#000000"></path></svg>